M48
; DRILL file {KiCad 8.0.0} date 2024-08-26T12:37:25-0700
; FORMAT={-:-/ absolute / inch / decimal}
; #@! TF.CreationDate,2024-08-26T12:37:25-07:00
; #@! TF.GenerationSoftware,Kicad,Pcbnew,8.0.0
; #@! TF.FileFunction,Plated,1,2,PTH
FMAT,2
INCH
; #@! TA.AperFunction,Plated,PTH,ViaDrill
T1C0.0059
; #@! TA.AperFunction,Plated,PTH,ViaDrill
T2C0.0118
; #@! TA.AperFunction,Plated,PTH,ComponentDrill
T3C0.0236
; #@! TA.AperFunction,Plated,PTH,ComponentDrill
T4C0.0394
; #@! TA.AperFunction,Plated,PTH,ComponentDrill
T5C0.0669
%
G90
G05
T1
X6.3583Y-3.563
X6.3681Y-3.5433
X6.378Y-3.563
X6.378Y-3.8335
X6.378Y-3.863
X6.3878Y-3.5433
X6.3976Y-3.563
X6.3976Y-3.8335
X6.3976Y-3.863
X6.4075Y-3.5433
X6.4173Y-3.563
X6.437Y-3.9665
X6.4961Y-4.4733
X6.4961Y-4.493
X6.5256Y-4.4733
X6.5256Y-4.493
X6.5748Y-4.1831
X6.5945Y-4.2618
X6.5945Y-4.2815
X6.6142Y-4.2618
X6.6142Y-4.2815
X6.624Y-3.8335
X6.624Y-3.937
X6.7323Y-4.1831
X6.7421Y-3.7843
X6.7421Y-3.804
X6.752Y-3.6564
X6.7618Y-3.7154
X6.7618Y-3.7843
X6.7618Y-3.804
X6.8799Y-3.7449
X6.8799Y-3.7646
X6.8996Y-3.7449
X6.8996Y-3.7646
X7.0374Y-4.6831
X7.0669Y-4.4488
X7.0915Y-4.7785
X7.1161Y-4.3996
X7.1358Y-4.6831
X7.2913Y-3.8228
X7.4803Y-3.9123
X7.687Y-4.365
X7.7072Y-4.1435
X7.7657Y-3.4792
T2
X6.3976Y-4.1142
X6.5256Y-4.0551
X6.565Y-2.7756
X6.6929Y-4.2323
X6.7028Y-4.311
T4
X6.0433Y-3.2331
X6.0433Y-3.6662
X6.0433Y-3.8237
X6.0433Y-4.2567
X6.2402Y-2.9756
X6.2402Y-3.0756
X6.2402Y-4.413
X6.2402Y-4.513
X6.8701Y-2.5984
X7.3031Y-2.5984
X7.5876Y-2.7754
X7.6876Y-2.7754
X7.9281Y-2.9762
X7.9281Y-3.0762
X7.9331Y-4.4132
X7.9331Y-4.5132
X8.1326Y-3.2331
X8.1326Y-3.6662
X8.1326Y-3.8237
X8.1326Y-4.2567
T5
X6.2402Y-3.3512
X6.2402Y-3.5481
X6.2402Y-3.9418
X6.2402Y-4.1386
X6.9882Y-2.9921
X7.185Y-2.9921
X7.9358Y-3.3512
X7.9358Y-3.5481
X7.9358Y-3.9418
X7.9358Y-4.1386
T3
G00X6.9872Y-4.5959
M15
G01X6.997Y-4.5959
M16
G05
G00X6.9872Y-4.7652
M15
G01X6.997Y-4.7652
M16
G05
G00X7.1762Y-4.5959
M15
G01X7.186Y-4.5959
M16
G05
G00X7.1762Y-4.7652
M15
G01X7.186Y-4.7652
M16
G05
M30
