%TF.GenerationSoftware,KiCad,Pcbnew,8.0.0*%
%TF.CreationDate,2024-08-26T22:32:04-07:00*%
%TF.ProjectId,BattleBot,42617474-6c65-4426-9f74-2e6b69636164,rev?*%
%TF.SameCoordinates,Original*%
%TF.FileFunction,Soldermask,Bot*%
%TF.FilePolarity,Negative*%
%FSLAX46Y46*%
G04 Gerber Fmt 4.6, Leading zero omitted, Abs format (unit mm)*
G04 Created by KiCad (PCBNEW 8.0.0) date 2024-08-26 22:32:04*
%MOMM*%
%LPD*%
G01*
G04 APERTURE LIST*
G04 Aperture macros list*
%AMRoundRect*
0 Rectangle with rounded corners*
0 $1 Rounding radius*
0 $2 $3 $4 $5 $6 $7 $8 $9 X,Y pos of 4 corners*
0 Add a 4 corners polygon primitive as box body*
4,1,4,$2,$3,$4,$5,$6,$7,$8,$9,$2,$3,0*
0 Add four circle primitives for the rounded corners*
1,1,$1+$1,$2,$3*
1,1,$1+$1,$4,$5*
1,1,$1+$1,$6,$7*
1,1,$1+$1,$8,$9*
0 Add four rect primitives between the rounded corners*
20,1,$1+$1,$2,$3,$4,$5,0*
20,1,$1+$1,$4,$5,$6,$7,0*
20,1,$1+$1,$6,$7,$8,$9,0*
20,1,$1+$1,$8,$9,$2,$3,0*%
G04 Aperture macros list end*
%ADD10C,2.754000*%
%ADD11RoundRect,0.102000X-1.275000X1.275000X-1.275000X-1.275000X1.275000X-1.275000X1.275000X1.275000X0*%
%ADD12C,1.712000*%
%ADD13RoundRect,0.102000X1.275000X-1.275000X1.275000X1.275000X-1.275000X1.275000X-1.275000X-1.275000X0*%
%ADD14C,0.900000*%
%ADD15C,3.200000*%
%ADD16R,1.700000X1.700000*%
%ADD17O,1.700000X1.700000*%
%ADD18C,0.520000*%
%ADD19O,2.404000X1.304000*%
%ADD20RoundRect,0.102000X-1.275000X-1.275000X1.275000X-1.275000X1.275000X1.275000X-1.275000X1.275000X0*%
G04 APERTURE END LIST*
D10*
%TO.C,J1*%
X201569250Y-85121320D03*
D11*
X201569250Y-90121320D03*
D12*
X206569250Y-93121320D03*
X206569250Y-82121320D03*
%TD*%
D10*
%TO.C,J5*%
X158500000Y-105121320D03*
D13*
X158500000Y-100121320D03*
D12*
X153500000Y-97121320D03*
X153500000Y-108121320D03*
%TD*%
D14*
%TO.C,SW1*%
X170000000Y-67250000D03*
X163200000Y-67250000D03*
%TD*%
D15*
%TO.C,H4*%
X154000000Y-68250000D03*
%TD*%
D16*
%TO.C,J10*%
X192725000Y-70496320D03*
D17*
X195265000Y-70496320D03*
%TD*%
D16*
%TO.C,J8*%
X158500000Y-78121320D03*
D17*
X158500000Y-75581320D03*
%TD*%
D16*
%TO.C,J2*%
X201375000Y-75596320D03*
D17*
X201375000Y-78136320D03*
%TD*%
D15*
%TO.C,H1*%
X154000000Y-121250000D03*
%TD*%
D18*
%TO.C,J11*%
X176250000Y-118885000D03*
X183750000Y-118885000D03*
D19*
X177600000Y-116735000D03*
X177600000Y-121035000D03*
X182400000Y-116735000D03*
X182400000Y-121035000D03*
%TD*%
D16*
%TO.C,J9*%
X158500000Y-114631320D03*
D17*
X158500000Y-112091320D03*
%TD*%
D10*
%TO.C,J4*%
X201569250Y-100121320D03*
D11*
X201569250Y-105121320D03*
D12*
X206569250Y-108121320D03*
X206569250Y-97121320D03*
%TD*%
D10*
%TO.C,J3*%
X182500000Y-76000000D03*
D20*
X177500000Y-76000000D03*
D12*
X185500000Y-66000000D03*
X174500000Y-66000000D03*
%TD*%
D15*
%TO.C,H2*%
X206000000Y-121250000D03*
%TD*%
D10*
%TO.C,J6*%
X158500000Y-90121320D03*
D13*
X158500000Y-85121320D03*
D12*
X153500000Y-82121320D03*
X153500000Y-93121320D03*
%TD*%
D15*
%TO.C,H3*%
X206000000Y-68250000D03*
%TD*%
D16*
%TO.C,J7*%
X201500000Y-112096320D03*
D17*
X201500000Y-114636320D03*
%TD*%
M02*
