%TF.GenerationSoftware,KiCad,Pcbnew,8.0.0*%
%TF.CreationDate,2024-08-26T22:32:04-07:00*%
%TF.ProjectId,BattleBot,42617474-6c65-4426-9f74-2e6b69636164,rev?*%
%TF.SameCoordinates,Original*%
%TF.FileFunction,Paste,Top*%
%TF.FilePolarity,Positive*%
%FSLAX46Y46*%
G04 Gerber Fmt 4.6, Leading zero omitted, Abs format (unit mm)*
G04 Created by KiCad (PCBNEW 8.0.0) date 2024-08-26 22:32:04*
%MOMM*%
%LPD*%
G01*
G04 APERTURE LIST*
G04 Aperture macros list*
%AMRoundRect*
0 Rectangle with rounded corners*
0 $1 Rounding radius*
0 $2 $3 $4 $5 $6 $7 $8 $9 X,Y pos of 4 corners*
0 Add a 4 corners polygon primitive as box body*
4,1,4,$2,$3,$4,$5,$6,$7,$8,$9,$2,$3,0*
0 Add four circle primitives for the rounded corners*
1,1,$1+$1,$2,$3*
1,1,$1+$1,$4,$5*
1,1,$1+$1,$6,$7*
1,1,$1+$1,$8,$9*
0 Add four rect primitives between the rounded corners*
20,1,$1+$1,$2,$3,$4,$5,0*
20,1,$1+$1,$4,$5,$6,$7,0*
20,1,$1+$1,$6,$7,$8,$9,0*
20,1,$1+$1,$8,$9,$2,$3,0*%
G04 Aperture macros list end*
%ADD10C,0.010000*%
%ADD11C,0.000000*%
%ADD12RoundRect,0.140000X-0.140000X-0.170000X0.140000X-0.170000X0.140000X0.170000X-0.140000X0.170000X0*%
%ADD13RoundRect,0.218750X-0.256250X0.218750X-0.256250X-0.218750X0.256250X-0.218750X0.256250X0.218750X0*%
%ADD14R,0.800000X0.400000*%
%ADD15R,0.400000X0.800000*%
%ADD16R,1.200000X1.200000*%
%ADD17R,0.800000X0.800000*%
%ADD18RoundRect,0.135000X-0.135000X-0.185000X0.135000X-0.185000X0.135000X0.185000X-0.135000X0.185000X0*%
%ADD19R,1.000000X1.600000*%
%ADD20R,0.302473X0.931065*%
%ADD21RoundRect,0.135000X0.135000X0.185000X-0.135000X0.185000X-0.135000X-0.185000X0.135000X-0.185000X0*%
%ADD22RoundRect,0.135000X-0.185000X0.135000X-0.185000X-0.135000X0.185000X-0.135000X0.185000X0.135000X0*%
%ADD23RoundRect,0.250000X0.300000X-0.300000X0.300000X0.300000X-0.300000X0.300000X-0.300000X-0.300000X0*%
%ADD24RoundRect,0.140000X0.140000X0.170000X-0.140000X0.170000X-0.140000X-0.170000X0.140000X-0.170000X0*%
%ADD25R,1.050000X0.650000*%
%ADD26RoundRect,0.140000X-0.170000X0.140000X-0.170000X-0.140000X0.170000X-0.140000X0.170000X0.140000X0*%
%ADD27R,0.300000X0.870000*%
%ADD28R,0.350000X0.610000*%
%ADD29R,0.610000X0.350000*%
%ADD30RoundRect,0.135000X0.185000X-0.135000X0.185000X0.135000X-0.185000X0.135000X-0.185000X-0.135000X0*%
G04 APERTURE END LIST*
D10*
%TO.C,U4*%
X178950000Y-96821320D02*
X177750000Y-96821320D01*
X177750000Y-96221320D01*
X178350000Y-95621320D01*
X178950000Y-95621320D01*
X178950000Y-96821320D01*
G36*
X178950000Y-96821320D02*
G01*
X177750000Y-96821320D01*
X177750000Y-96221320D01*
X178350000Y-95621320D01*
X178950000Y-95621320D01*
X178950000Y-96821320D01*
G37*
D11*
%TO.C,U2*%
G36*
X191775000Y-105125000D02*
G01*
X190025000Y-105125000D01*
X190025000Y-104125002D01*
X191775000Y-104125002D01*
X191775000Y-105125000D01*
G37*
%TD*%
D12*
%TO.C,C13*%
X169540000Y-95401320D03*
X170500000Y-95401320D03*
%TD*%
D13*
%TO.C,D2*%
X163500000Y-106750000D03*
X163500000Y-108325000D03*
%TD*%
D14*
%TO.C,U4*%
X173000000Y-91921320D03*
X173000000Y-92771320D03*
X173000000Y-93621320D03*
X173000000Y-94471320D03*
X173000000Y-95321320D03*
X173000000Y-96171320D03*
X173000000Y-97021320D03*
X173000000Y-97871320D03*
X173000000Y-98721320D03*
X173000000Y-99571320D03*
X173000000Y-100421320D03*
X173000000Y-101271320D03*
X173000000Y-102121320D03*
X173000000Y-102971320D03*
X173000000Y-103821320D03*
D15*
X174050000Y-104871320D03*
X174900000Y-104871320D03*
X175750000Y-104871320D03*
X176600000Y-104871320D03*
X177450000Y-104871320D03*
X178300000Y-104871320D03*
X179150000Y-104871320D03*
X180000000Y-104871320D03*
X180850000Y-104871320D03*
X181700000Y-104871320D03*
X182550000Y-104871320D03*
X183400000Y-104871320D03*
X184250000Y-104871320D03*
X185100000Y-104871320D03*
X185950000Y-104871320D03*
D14*
X187000000Y-103821320D03*
X187000000Y-102971320D03*
X187000000Y-102121320D03*
X187000000Y-101271320D03*
X187000000Y-100421320D03*
X187000000Y-99571320D03*
X187000000Y-98721320D03*
X187000000Y-97871320D03*
X187000000Y-97021320D03*
X187000000Y-96171320D03*
X187000000Y-95321320D03*
X187000000Y-94471320D03*
X187000000Y-93621320D03*
X187000000Y-92771320D03*
X187000000Y-91921320D03*
D15*
X185950000Y-90871320D03*
X185100000Y-90871320D03*
X184250000Y-90871320D03*
X183400000Y-90871320D03*
X182550000Y-90871320D03*
X181700000Y-90871320D03*
X180850000Y-90871320D03*
X180000000Y-90871320D03*
X179150000Y-90871320D03*
X178300000Y-90871320D03*
X177450000Y-90871320D03*
X176600000Y-90871320D03*
X175750000Y-90871320D03*
X174900000Y-90871320D03*
X174050000Y-90871320D03*
D16*
X180000000Y-97871320D03*
X180000000Y-96221320D03*
X181650000Y-96221320D03*
X181650000Y-97871320D03*
X181650000Y-99521320D03*
X180000000Y-99521320D03*
X178350000Y-99521320D03*
X178350000Y-97871320D03*
D17*
X173000000Y-90871320D03*
X173000000Y-104871320D03*
X187000000Y-104871320D03*
X187000000Y-90871320D03*
%TD*%
D18*
%TO.C,R1*%
X181000000Y-122750000D03*
X182020000Y-122750000D03*
%TD*%
D19*
%TO.C,SW1*%
X169100000Y-68450000D03*
X169100000Y-66050000D03*
X166600000Y-68450000D03*
X166600000Y-66050000D03*
X164100000Y-68450000D03*
X164100000Y-66050000D03*
%TD*%
D20*
%TO.C,U2*%
X191874999Y-103134468D03*
X191225001Y-103134468D03*
X190574999Y-103134468D03*
X189925001Y-103134468D03*
X189925001Y-106115534D03*
X190574999Y-106115534D03*
X191225001Y-106115534D03*
X191874999Y-106115534D03*
%TD*%
D21*
%TO.C,R2*%
X178760000Y-115250000D03*
X177740000Y-115250000D03*
%TD*%
D22*
%TO.C,R4*%
X170000000Y-104240000D03*
X170000000Y-105260000D03*
%TD*%
D12*
%TO.C,C14*%
X169540000Y-97371320D03*
X170500000Y-97371320D03*
%TD*%
D18*
%TO.C,R12*%
X189490000Y-97371320D03*
X190510000Y-97371320D03*
%TD*%
D23*
%TO.C,D1*%
X197272500Y-106621320D03*
X197272500Y-103821320D03*
%TD*%
D24*
%TO.C,C5*%
X164980000Y-99000000D03*
X164020000Y-99000000D03*
%TD*%
D12*
%TO.C,C2*%
X190414999Y-107615534D03*
X191374999Y-107615534D03*
%TD*%
D22*
%TO.C,R3*%
X168250000Y-104240000D03*
X168250000Y-105260000D03*
%TD*%
D12*
%TO.C,C11*%
X193540000Y-95371320D03*
X194500000Y-95371320D03*
%TD*%
D25*
%TO.C,SW4*%
X165925000Y-91296320D03*
X170075000Y-91296320D03*
X165925000Y-93446320D03*
X170075000Y-93446320D03*
%TD*%
D26*
%TO.C,C3*%
X163250000Y-102510000D03*
X163250000Y-103470000D03*
%TD*%
D18*
%TO.C,R10*%
X165480000Y-95381320D03*
X166500000Y-95381320D03*
%TD*%
D21*
%TO.C,R13*%
X194530000Y-97371320D03*
X193510000Y-97371320D03*
%TD*%
%TO.C,R11*%
X166500000Y-97371320D03*
X165480000Y-97371320D03*
%TD*%
D22*
%TO.C,R16*%
X161750000Y-107037500D03*
X161750000Y-108057500D03*
%TD*%
D26*
%TO.C,C4*%
X162020000Y-102510000D03*
X162020000Y-103470000D03*
%TD*%
D27*
%TO.C,J11*%
X177250000Y-118020000D03*
X178750000Y-118020000D03*
X179250000Y-118020000D03*
X179750000Y-118020000D03*
X180250000Y-118020000D03*
X180750000Y-118020000D03*
X181250000Y-118020000D03*
X182750000Y-118020000D03*
X182750000Y-119750000D03*
X181250000Y-119750000D03*
X180750000Y-119750000D03*
X180250000Y-119750000D03*
X179750000Y-119750000D03*
X179250000Y-119750000D03*
X178750000Y-119750000D03*
X177250000Y-119750000D03*
%TD*%
D25*
%TO.C,SW3*%
X189925000Y-91296320D03*
X194075000Y-91296320D03*
X189925000Y-93446320D03*
X194075000Y-93446320D03*
%TD*%
D24*
%TO.C,C12*%
X190480000Y-95371320D03*
X189520000Y-95371320D03*
%TD*%
D12*
%TO.C,C1*%
X190283033Y-101243820D03*
X191243033Y-101243820D03*
%TD*%
D28*
%TO.C,U3*%
X166517500Y-101972500D03*
X166017500Y-101972500D03*
X165517500Y-101972500D03*
X165017500Y-101972500D03*
D29*
X164857500Y-102632500D03*
X164857500Y-103132500D03*
X164857500Y-103632500D03*
D28*
X165017500Y-104292500D03*
X165517500Y-104292500D03*
X166017500Y-104292500D03*
X166517500Y-104292500D03*
D29*
X166677500Y-103632500D03*
X166677500Y-103132500D03*
X166677500Y-102632500D03*
%TD*%
D30*
%TO.C,R5*%
X168250000Y-102010000D03*
X168250000Y-100990000D03*
%TD*%
D23*
%TO.C,D3*%
X194263033Y-106643820D03*
X194263033Y-103843820D03*
%TD*%
M02*
