%TF.GenerationSoftware,KiCad,Pcbnew,8.0.0*%
%TF.CreationDate,2024-08-26T22:32:04-07:00*%
%TF.ProjectId,BattleBot,42617474-6c65-4426-9f74-2e6b69636164,rev?*%
%TF.SameCoordinates,Original*%
%TF.FileFunction,Soldermask,Top*%
%TF.FilePolarity,Negative*%
%FSLAX46Y46*%
G04 Gerber Fmt 4.6, Leading zero omitted, Abs format (unit mm)*
G04 Created by KiCad (PCBNEW 8.0.0) date 2024-08-26 22:32:04*
%MOMM*%
%LPD*%
G01*
G04 APERTURE LIST*
G04 Aperture macros list*
%AMRoundRect*
0 Rectangle with rounded corners*
0 $1 Rounding radius*
0 $2 $3 $4 $5 $6 $7 $8 $9 X,Y pos of 4 corners*
0 Add a 4 corners polygon primitive as box body*
4,1,4,$2,$3,$4,$5,$6,$7,$8,$9,$2,$3,0*
0 Add four circle primitives for the rounded corners*
1,1,$1+$1,$2,$3*
1,1,$1+$1,$4,$5*
1,1,$1+$1,$6,$7*
1,1,$1+$1,$8,$9*
0 Add four rect primitives between the rounded corners*
20,1,$1+$1,$2,$3,$4,$5,0*
20,1,$1+$1,$4,$5,$6,$7,0*
20,1,$1+$1,$6,$7,$8,$9,0*
20,1,$1+$1,$8,$9,$2,$3,0*%
G04 Aperture macros list end*
%ADD10C,0.010000*%
%ADD11RoundRect,0.140000X-0.140000X-0.170000X0.140000X-0.170000X0.140000X0.170000X-0.140000X0.170000X0*%
%ADD12RoundRect,0.218750X-0.256250X0.218750X-0.256250X-0.218750X0.256250X-0.218750X0.256250X0.218750X0*%
%ADD13C,2.754000*%
%ADD14RoundRect,0.102000X-1.275000X1.275000X-1.275000X-1.275000X1.275000X-1.275000X1.275000X1.275000X0*%
%ADD15C,1.712000*%
%ADD16RoundRect,0.102000X-0.400000X-0.200000X0.400000X-0.200000X0.400000X0.200000X-0.400000X0.200000X0*%
%ADD17RoundRect,0.102000X-0.200000X-0.400000X0.200000X-0.400000X0.200000X0.400000X-0.200000X0.400000X0*%
%ADD18RoundRect,0.102000X-0.600000X-0.600000X0.600000X-0.600000X0.600000X0.600000X-0.600000X0.600000X0*%
%ADD19RoundRect,0.102000X-0.400000X-0.400000X0.400000X-0.400000X0.400000X0.400000X-0.400000X0.400000X0*%
%ADD20RoundRect,0.135000X-0.135000X-0.185000X0.135000X-0.185000X0.135000X0.185000X-0.135000X0.185000X0*%
%ADD21RoundRect,0.102000X1.275000X-1.275000X1.275000X1.275000X-1.275000X1.275000X-1.275000X-1.275000X0*%
%ADD22C,0.900000*%
%ADD23RoundRect,0.102000X0.500000X0.800000X-0.500000X0.800000X-0.500000X-0.800000X0.500000X-0.800000X0*%
%ADD24RoundRect,0.102000X-0.500000X-0.800000X0.500000X-0.800000X0.500000X0.800000X-0.500000X0.800000X0*%
%ADD25R,0.302473X0.931065*%
%ADD26R,2.500000X1.749999*%
%ADD27RoundRect,0.135000X0.135000X0.185000X-0.135000X0.185000X-0.135000X-0.185000X0.135000X-0.185000X0*%
%ADD28RoundRect,0.135000X-0.185000X0.135000X-0.185000X-0.135000X0.185000X-0.135000X0.185000X0.135000X0*%
%ADD29C,3.200000*%
%ADD30RoundRect,0.250000X0.300000X-0.300000X0.300000X0.300000X-0.300000X0.300000X-0.300000X-0.300000X0*%
%ADD31RoundRect,0.140000X0.140000X0.170000X-0.140000X0.170000X-0.140000X-0.170000X0.140000X-0.170000X0*%
%ADD32R,1.700000X1.700000*%
%ADD33O,1.700000X1.700000*%
%ADD34RoundRect,0.102000X-0.525000X-0.325000X0.525000X-0.325000X0.525000X0.325000X-0.525000X0.325000X0*%
%ADD35RoundRect,0.140000X-0.170000X0.140000X-0.170000X-0.140000X0.170000X-0.140000X0.170000X0.140000X0*%
%ADD36C,0.520000*%
%ADD37RoundRect,0.102000X-0.150000X-0.435000X0.150000X-0.435000X0.150000X0.435000X-0.150000X0.435000X0*%
%ADD38O,2.404000X1.304000*%
%ADD39RoundRect,0.102000X-1.275000X-1.275000X1.275000X-1.275000X1.275000X1.275000X-1.275000X1.275000X0*%
%ADD40RoundRect,0.135000X0.185000X-0.135000X0.185000X0.135000X-0.185000X0.135000X-0.185000X-0.135000X0*%
G04 APERTURE END LIST*
D10*
%TO.C,U4*%
X179050000Y-96921320D02*
X177650000Y-96921320D01*
X177650000Y-96171320D01*
X178300000Y-95521320D01*
X179050000Y-95521320D01*
X179050000Y-96921320D01*
G36*
X179050000Y-96921320D02*
G01*
X177650000Y-96921320D01*
X177650000Y-96171320D01*
X178300000Y-95521320D01*
X179050000Y-95521320D01*
X179050000Y-96921320D01*
G37*
%TO.C,U3*%
X165077500Y-102987500D02*
X164627500Y-102987500D01*
X164627500Y-102277500D01*
X165077500Y-102277500D01*
X165077500Y-102987500D01*
G36*
X165077500Y-102987500D02*
G01*
X164627500Y-102987500D01*
X164627500Y-102277500D01*
X165077500Y-102277500D01*
X165077500Y-102987500D01*
G37*
X165077500Y-103487500D02*
X164627500Y-103487500D01*
X164627500Y-102777500D01*
X165077500Y-102777500D01*
X165077500Y-103487500D01*
G36*
X165077500Y-103487500D02*
G01*
X164627500Y-103487500D01*
X164627500Y-102777500D01*
X165077500Y-102777500D01*
X165077500Y-103487500D01*
G37*
X165077500Y-103987500D02*
X164627500Y-103987500D01*
X164627500Y-103277500D01*
X165077500Y-103277500D01*
X165077500Y-103987500D01*
G36*
X165077500Y-103987500D02*
G01*
X164627500Y-103987500D01*
X164627500Y-103277500D01*
X165077500Y-103277500D01*
X165077500Y-103987500D01*
G37*
X165242500Y-102327500D02*
X164792500Y-102327500D01*
X164792500Y-101617500D01*
X165242500Y-101617500D01*
X165242500Y-102327500D01*
G36*
X165242500Y-102327500D02*
G01*
X164792500Y-102327500D01*
X164792500Y-101617500D01*
X165242500Y-101617500D01*
X165242500Y-102327500D01*
G37*
X165242500Y-104647500D02*
X164792500Y-104647500D01*
X164792500Y-103937500D01*
X165242500Y-103937500D01*
X165242500Y-104647500D01*
G36*
X165242500Y-104647500D02*
G01*
X164792500Y-104647500D01*
X164792500Y-103937500D01*
X165242500Y-103937500D01*
X165242500Y-104647500D01*
G37*
X165742500Y-102327500D02*
X165292500Y-102327500D01*
X165292500Y-101617500D01*
X165742500Y-101617500D01*
X165742500Y-102327500D01*
G36*
X165742500Y-102327500D02*
G01*
X165292500Y-102327500D01*
X165292500Y-101617500D01*
X165742500Y-101617500D01*
X165742500Y-102327500D01*
G37*
X165742500Y-104647500D02*
X165292500Y-104647500D01*
X165292500Y-103937500D01*
X165742500Y-103937500D01*
X165742500Y-104647500D01*
G36*
X165742500Y-104647500D02*
G01*
X165292500Y-104647500D01*
X165292500Y-103937500D01*
X165742500Y-103937500D01*
X165742500Y-104647500D01*
G37*
X166242500Y-102327500D02*
X165792500Y-102327500D01*
X165792500Y-101617500D01*
X166242500Y-101617500D01*
X166242500Y-102327500D01*
G36*
X166242500Y-102327500D02*
G01*
X165792500Y-102327500D01*
X165792500Y-101617500D01*
X166242500Y-101617500D01*
X166242500Y-102327500D01*
G37*
X166242500Y-104647500D02*
X165792500Y-104647500D01*
X165792500Y-103937500D01*
X166242500Y-103937500D01*
X166242500Y-104647500D01*
G36*
X166242500Y-104647500D02*
G01*
X165792500Y-104647500D01*
X165792500Y-103937500D01*
X166242500Y-103937500D01*
X166242500Y-104647500D01*
G37*
X166742500Y-102327500D02*
X166292500Y-102327500D01*
X166292500Y-101617500D01*
X166742500Y-101617500D01*
X166742500Y-102327500D01*
G36*
X166742500Y-102327500D02*
G01*
X166292500Y-102327500D01*
X166292500Y-101617500D01*
X166742500Y-101617500D01*
X166742500Y-102327500D01*
G37*
X166742500Y-104647500D02*
X166292500Y-104647500D01*
X166292500Y-103937500D01*
X166742500Y-103937500D01*
X166742500Y-104647500D01*
G36*
X166742500Y-104647500D02*
G01*
X166292500Y-104647500D01*
X166292500Y-103937500D01*
X166742500Y-103937500D01*
X166742500Y-104647500D01*
G37*
X166907500Y-102987500D02*
X166457500Y-102987500D01*
X166457500Y-102277500D01*
X166907500Y-102277500D01*
X166907500Y-102987500D01*
G36*
X166907500Y-102987500D02*
G01*
X166457500Y-102987500D01*
X166457500Y-102277500D01*
X166907500Y-102277500D01*
X166907500Y-102987500D01*
G37*
X166907500Y-103487500D02*
X166457500Y-103487500D01*
X166457500Y-102777500D01*
X166907500Y-102777500D01*
X166907500Y-103487500D01*
G36*
X166907500Y-103487500D02*
G01*
X166457500Y-103487500D01*
X166457500Y-102777500D01*
X166907500Y-102777500D01*
X166907500Y-103487500D01*
G37*
X166907500Y-103987500D02*
X166457500Y-103987500D01*
X166457500Y-103277500D01*
X166907500Y-103277500D01*
X166907500Y-103987500D01*
G36*
X166907500Y-103987500D02*
G01*
X166457500Y-103987500D01*
X166457500Y-103277500D01*
X166907500Y-103277500D01*
X166907500Y-103987500D01*
G37*
%TD*%
D11*
%TO.C,C13*%
X169540000Y-95401320D03*
X170500000Y-95401320D03*
%TD*%
D12*
%TO.C,D2*%
X163500000Y-106750000D03*
X163500000Y-108325000D03*
%TD*%
D13*
%TO.C,J1*%
X201569250Y-85121320D03*
D14*
X201569250Y-90121320D03*
D15*
X206569250Y-93121320D03*
X206569250Y-82121320D03*
%TD*%
D16*
%TO.C,U4*%
X173000000Y-91921320D03*
X173000000Y-92771320D03*
X173000000Y-93621320D03*
X173000000Y-94471320D03*
X173000000Y-95321320D03*
X173000000Y-96171320D03*
X173000000Y-97021320D03*
X173000000Y-97871320D03*
X173000000Y-98721320D03*
X173000000Y-99571320D03*
X173000000Y-100421320D03*
X173000000Y-101271320D03*
X173000000Y-102121320D03*
X173000000Y-102971320D03*
X173000000Y-103821320D03*
D17*
X174050000Y-104871320D03*
X174900000Y-104871320D03*
X175750000Y-104871320D03*
X176600000Y-104871320D03*
X177450000Y-104871320D03*
X178300000Y-104871320D03*
X179150000Y-104871320D03*
X180000000Y-104871320D03*
X180850000Y-104871320D03*
X181700000Y-104871320D03*
X182550000Y-104871320D03*
X183400000Y-104871320D03*
X184250000Y-104871320D03*
X185100000Y-104871320D03*
X185950000Y-104871320D03*
D16*
X187000000Y-103821320D03*
X187000000Y-102971320D03*
X187000000Y-102121320D03*
X187000000Y-101271320D03*
X187000000Y-100421320D03*
X187000000Y-99571320D03*
X187000000Y-98721320D03*
X187000000Y-97871320D03*
X187000000Y-97021320D03*
X187000000Y-96171320D03*
X187000000Y-95321320D03*
X187000000Y-94471320D03*
X187000000Y-93621320D03*
X187000000Y-92771320D03*
X187000000Y-91921320D03*
D17*
X185950000Y-90871320D03*
X185100000Y-90871320D03*
X184250000Y-90871320D03*
X183400000Y-90871320D03*
X182550000Y-90871320D03*
X181700000Y-90871320D03*
X180850000Y-90871320D03*
X180000000Y-90871320D03*
X179150000Y-90871320D03*
X178300000Y-90871320D03*
X177450000Y-90871320D03*
X176600000Y-90871320D03*
X175750000Y-90871320D03*
X174900000Y-90871320D03*
X174050000Y-90871320D03*
D18*
X180000000Y-97871320D03*
X180000000Y-96221320D03*
X181650000Y-96221320D03*
X181650000Y-97871320D03*
X181650000Y-99521320D03*
X180000000Y-99521320D03*
X178350000Y-99521320D03*
X178350000Y-97871320D03*
D19*
X173000000Y-90871320D03*
X173000000Y-104871320D03*
X187000000Y-104871320D03*
X187000000Y-90871320D03*
%TD*%
D20*
%TO.C,R1*%
X181000000Y-122750000D03*
X182020000Y-122750000D03*
%TD*%
D13*
%TO.C,J5*%
X158500000Y-105121320D03*
D21*
X158500000Y-100121320D03*
D15*
X153500000Y-97121320D03*
X153500000Y-108121320D03*
%TD*%
D22*
%TO.C,SW1*%
X170000000Y-67250000D03*
X163200000Y-67250000D03*
D23*
X169100000Y-68450000D03*
D24*
X169100000Y-66050000D03*
D23*
X166600000Y-68450000D03*
D24*
X166600000Y-66050000D03*
D23*
X164100000Y-68450000D03*
D24*
X164100000Y-66050000D03*
%TD*%
D25*
%TO.C,U2*%
X191874999Y-103134468D03*
X191225001Y-103134468D03*
X190574999Y-103134468D03*
X189925001Y-103134468D03*
X189925001Y-106115534D03*
X190574999Y-106115534D03*
X191225001Y-106115534D03*
X191874999Y-106115534D03*
D26*
X190900000Y-104625001D03*
%TD*%
D27*
%TO.C,R2*%
X178760000Y-115250000D03*
X177740000Y-115250000D03*
%TD*%
D28*
%TO.C,R4*%
X170000000Y-104240000D03*
X170000000Y-105260000D03*
%TD*%
D11*
%TO.C,C14*%
X169540000Y-97371320D03*
X170500000Y-97371320D03*
%TD*%
D20*
%TO.C,R12*%
X189490000Y-97371320D03*
X190510000Y-97371320D03*
%TD*%
D29*
%TO.C,H4*%
X154000000Y-68250000D03*
%TD*%
D30*
%TO.C,D1*%
X197272500Y-106621320D03*
X197272500Y-103821320D03*
%TD*%
D31*
%TO.C,C5*%
X164980000Y-99000000D03*
X164020000Y-99000000D03*
%TD*%
D32*
%TO.C,J10*%
X192725000Y-70496320D03*
D33*
X195265000Y-70496320D03*
%TD*%
D11*
%TO.C,C2*%
X190414999Y-107615534D03*
X191374999Y-107615534D03*
%TD*%
D28*
%TO.C,R3*%
X168250000Y-104240000D03*
X168250000Y-105260000D03*
%TD*%
D32*
%TO.C,J8*%
X158500000Y-78121320D03*
D33*
X158500000Y-75581320D03*
%TD*%
D11*
%TO.C,C11*%
X193540000Y-95371320D03*
X194500000Y-95371320D03*
%TD*%
D34*
%TO.C,SW4*%
X165925000Y-91296320D03*
X170075000Y-91296320D03*
X165925000Y-93446320D03*
X170075000Y-93446320D03*
%TD*%
D35*
%TO.C,C3*%
X163250000Y-102510000D03*
X163250000Y-103470000D03*
%TD*%
D20*
%TO.C,R10*%
X165480000Y-95381320D03*
X166500000Y-95381320D03*
%TD*%
D32*
%TO.C,J2*%
X201375000Y-75596320D03*
D33*
X201375000Y-78136320D03*
%TD*%
D27*
%TO.C,R13*%
X194530000Y-97371320D03*
X193510000Y-97371320D03*
%TD*%
D29*
%TO.C,H1*%
X154000000Y-121250000D03*
%TD*%
D27*
%TO.C,R11*%
X166500000Y-97371320D03*
X165480000Y-97371320D03*
%TD*%
D28*
%TO.C,R16*%
X161750000Y-107037500D03*
X161750000Y-108057500D03*
%TD*%
D35*
%TO.C,C4*%
X162020000Y-102510000D03*
X162020000Y-103470000D03*
%TD*%
D36*
%TO.C,J11*%
X176250000Y-118885000D03*
X183750000Y-118885000D03*
D37*
X177250000Y-118020000D03*
X178750000Y-118020000D03*
X179250000Y-118020000D03*
X179750000Y-118020000D03*
X180250000Y-118020000D03*
X180750000Y-118020000D03*
X181250000Y-118020000D03*
X182750000Y-118020000D03*
X182750000Y-119750000D03*
X181250000Y-119750000D03*
X180750000Y-119750000D03*
X180250000Y-119750000D03*
X179750000Y-119750000D03*
X179250000Y-119750000D03*
X178750000Y-119750000D03*
X177250000Y-119750000D03*
D38*
X177600000Y-116735000D03*
X177600000Y-121035000D03*
X182400000Y-116735000D03*
X182400000Y-121035000D03*
%TD*%
D34*
%TO.C,SW3*%
X189925000Y-91296320D03*
X194075000Y-91296320D03*
X189925000Y-93446320D03*
X194075000Y-93446320D03*
%TD*%
D31*
%TO.C,C12*%
X190480000Y-95371320D03*
X189520000Y-95371320D03*
%TD*%
D32*
%TO.C,J9*%
X158500000Y-114631320D03*
D33*
X158500000Y-112091320D03*
%TD*%
D13*
%TO.C,J4*%
X201569250Y-100121320D03*
D14*
X201569250Y-105121320D03*
D15*
X206569250Y-108121320D03*
X206569250Y-97121320D03*
%TD*%
D13*
%TO.C,J3*%
X182500000Y-76000000D03*
D39*
X177500000Y-76000000D03*
D15*
X185500000Y-66000000D03*
X174500000Y-66000000D03*
%TD*%
D29*
%TO.C,H2*%
X206000000Y-121250000D03*
%TD*%
D11*
%TO.C,C1*%
X190283033Y-101243820D03*
X191243033Y-101243820D03*
%TD*%
D13*
%TO.C,J6*%
X158500000Y-90121320D03*
D21*
X158500000Y-85121320D03*
D15*
X153500000Y-82121320D03*
X153500000Y-93121320D03*
%TD*%
D29*
%TO.C,H3*%
X206000000Y-68250000D03*
%TD*%
D40*
%TO.C,R5*%
X168250000Y-102010000D03*
X168250000Y-100990000D03*
%TD*%
D32*
%TO.C,J7*%
X201500000Y-112096320D03*
D33*
X201500000Y-114636320D03*
%TD*%
D30*
%TO.C,D3*%
X194263033Y-106643820D03*
X194263033Y-103843820D03*
%TD*%
M02*
