M48
; DRILL file {KiCad 8.0.0} date 2024-09-30T13:09:25-0700
; FORMAT={-:-/ absolute / inch / decimal}
; #@! TF.CreationDate,2024-09-30T13:09:25-07:00
; #@! TF.GenerationSoftware,Kicad,Pcbnew,8.0.0
; #@! TF.FileFunction,Plated,1,2,PTH
FMAT,2
INCH
; #@! TA.AperFunction,Plated,PTH,ViaDrill
T1C0.0059
; #@! TA.AperFunction,Plated,PTH,ViaDrill
T2C0.0079
; #@! TA.AperFunction,Plated,PTH,ComponentDrill
T3C0.0236
; #@! TA.AperFunction,Plated,PTH,ComponentDrill
T4C0.0394
; #@! TA.AperFunction,Plated,PTH,ComponentDrill
T5C0.0669
%
G90
G05
T1
X7.8346Y-3.7008
X7.9213Y-3.7008
X7.9488Y-3.7008
X9.0709Y-3.0079
X9.0709Y-3.0413
X9.2126Y-2.9724
T2
X7.6476Y-2.5591
X7.6476Y-2.5787
X7.6476Y-2.5984
X7.6476Y-2.6181
X7.6673Y-2.5591
X7.6673Y-2.5787
X7.6673Y-2.5984
X7.687Y-2.5591
X7.687Y-2.5787
X7.7067Y-2.5591
X7.7756Y-3.6614
X7.7756Y-3.7008
X7.7953Y-3.7008
X7.8543Y-3.7008
X7.874Y-4.3012
X7.8937Y-3.7008
X7.9134Y-3.0315
X7.9134Y-3.189
X7.9232Y-3.4055
X7.9232Y-3.4252
X7.9232Y-3.4449
X7.9232Y-3.4646
X7.9429Y-3.4055
X7.9429Y-3.4252
X7.9429Y-3.4449
X7.9626Y-3.4055
X7.9626Y-3.4252
X7.9823Y-3.0118
X7.9823Y-3.2874
X7.9823Y-3.4055
X8.0118Y-3.0118
X8.0118Y-3.3268
X8.0413Y-3.0118
X8.0413Y-4.1142
X8.0413Y-4.1339
X8.0413Y-4.1535
X8.0413Y-4.1732
X8.0413Y-4.1929
X8.0512Y-3.4646
X8.061Y-4.1339
X8.061Y-4.1535
X8.061Y-4.1732
X8.061Y-4.1929
X8.0807Y-4.1535
X8.0807Y-4.1732
X8.0807Y-4.1929
X8.1004Y-4.1732
X8.1004Y-4.1929
X8.1102Y-3.1496
X8.1102Y-3.1693
X8.1102Y-3.189
X8.1102Y-3.2087
X8.1201Y-4.1929
X8.1299Y-3.1496
X8.1299Y-3.1693
X8.1299Y-3.189
X8.1496Y-3.1496
X8.1496Y-3.1693
X8.1693Y-3.1496
X8.5138Y-3.9567
X8.5335Y-3.937
X8.5335Y-3.9567
X8.5531Y-3.9173
X8.5531Y-3.937
X8.5531Y-3.9567
X8.5728Y-3.8976
X8.5728Y-3.9173
X8.5728Y-3.937
X8.5728Y-3.9567
X8.622Y-3.2283
X8.622Y-4.1929
X8.6417Y-3.2283
X8.6417Y-4.1929
X8.6811Y-3.5433
X8.6909Y-3.3661
X8.6909Y-3.3858
X8.6909Y-3.4055
X8.7008Y-3.248
X8.7106Y-3.3661
X8.7106Y-3.3858
X8.7205Y-3.8583
X8.7205Y-3.878
X8.7205Y-3.8976
X8.7205Y-3.9173
X8.7303Y-3.3661
X8.7402Y-3.8583
X8.7402Y-3.878
X8.7402Y-3.8976
X8.7598Y-3.8583
X8.7598Y-3.878
X8.7795Y-3.8583
X8.7795Y-4.1142
X8.7795Y-4.1339
X8.7795Y-4.1535
X8.7795Y-4.1732
X8.7992Y-4.1142
X8.7992Y-4.1339
X8.7992Y-4.1535
X8.8189Y-4.1142
X8.8189Y-4.1339
X8.8386Y-4.1142
X8.8878Y-4.2323
X9.0059Y-2.8937
X9.0256Y-2.8937
X9.0256Y-4.1732
X9.0354Y-3.2677
X9.0748Y-3.2677
X9.1043Y-3.2776
X9.2028Y-3.8484
X9.2224Y-3.8484
X9.252Y-4.4291
X9.2717Y-3.3268
X9.2717Y-4.4094
X9.2717Y-4.4291
X9.2913Y-3.3268
X9.2913Y-4.3898
X9.2913Y-4.4094
X9.2913Y-4.4291
X9.311Y-3.3268
X9.311Y-4.3701
X9.311Y-4.3898
X9.311Y-4.4094
X9.311Y-4.4291
X9.3307Y-4.3504
X9.3307Y-4.3701
X9.3307Y-4.3898
X9.3307Y-4.4094
X9.3307Y-4.4291
X9.4587Y-2.9429
T4
X7.4803Y-3.0118
X7.4803Y-3.4449
X7.4803Y-3.5827
X7.4803Y-4.0157
X7.6132Y-2.7061
X7.6132Y-2.8061
X7.6132Y-4.2022
X7.6132Y-4.3022
X7.7756Y-4.4587
X7.7953Y-2.4409
X7.8756Y-4.4587
X8.2283Y-2.4409
X9.5522Y-2.7165
X9.5522Y-2.8165
X9.5522Y-4.2018
X9.5522Y-4.3018
X9.6457Y-3.0118
X9.6457Y-3.4449
X9.6457Y-3.5827
X9.6457Y-4.0157
T5
X7.6772Y-3.1299
X7.6772Y-3.3268
X7.6772Y-3.7008
X7.6772Y-3.8976
X7.9134Y-2.8346
X8.1102Y-2.8346
X9.4488Y-3.1299
X9.4488Y-3.3268
X9.4488Y-3.7008
X9.4488Y-3.8976
T3
G00X8.4421Y-4.4104
M15
G01X8.4421Y-4.4537
M16
G05
G00X8.4421Y-4.5809
M15
G01X8.4421Y-4.6124
M16
G05
G00X8.7823Y-4.4104
M15
G01X8.7823Y-4.4537
M16
G05
G00X8.7823Y-4.5809
M15
G01X8.7823Y-4.6124
M16
G05
M30
