%TF.GenerationSoftware,KiCad,Pcbnew,8.0.0*%
%TF.CreationDate,2024-09-30T13:09:28-07:00*%
%TF.ProjectId,BattleBot,42617474-6c65-4426-9f74-2e6b69636164,rev?*%
%TF.SameCoordinates,Original*%
%TF.FileFunction,Soldermask,Bot*%
%TF.FilePolarity,Negative*%
%FSLAX46Y46*%
G04 Gerber Fmt 4.6, Leading zero omitted, Abs format (unit mm)*
G04 Created by KiCad (PCBNEW 8.0.0) date 2024-09-30 13:09:28*
%MOMM*%
%LPD*%
G01*
G04 APERTURE LIST*
G04 Aperture macros list*
%AMRoundRect*
0 Rectangle with rounded corners*
0 $1 Rounding radius*
0 $2 $3 $4 $5 $6 $7 $8 $9 X,Y pos of 4 corners*
0 Add a 4 corners polygon primitive as box body*
4,1,4,$2,$3,$4,$5,$6,$7,$8,$9,$2,$3,0*
0 Add four circle primitives for the rounded corners*
1,1,$1+$1,$2,$3*
1,1,$1+$1,$4,$5*
1,1,$1+$1,$6,$7*
1,1,$1+$1,$8,$9*
0 Add four rect primitives between the rounded corners*
20,1,$1+$1,$2,$3,$4,$5,0*
20,1,$1+$1,$4,$5,$6,$7,0*
20,1,$1+$1,$6,$7,$8,$9,0*
20,1,$1+$1,$8,$9,$2,$3,0*%
G04 Aperture macros list end*
%ADD10R,1.700000X1.700000*%
%ADD11O,1.700000X1.700000*%
%ADD12C,2.754000*%
%ADD13RoundRect,0.102000X-1.275000X1.275000X-1.275000X-1.275000X1.275000X-1.275000X1.275000X1.275000X0*%
%ADD14C,1.712000*%
%ADD15C,3.200000*%
%ADD16RoundRect,0.102000X-1.275000X-1.275000X1.275000X-1.275000X1.275000X1.275000X-1.275000X1.275000X0*%
%ADD17RoundRect,0.102000X1.275000X-1.275000X1.275000X1.275000X-1.275000X1.275000X-1.275000X-1.275000X0*%
%ADD18C,0.650000*%
%ADD19O,1.204000X2.304000*%
%ADD20RoundRect,0.301000X-0.301000X-0.701000X0.301000X-0.701000X0.301000X0.701000X-0.301000X0.701000X0*%
G04 APERTURE END LIST*
D10*
%TO.C,J7*%
X242625000Y-106725000D03*
D11*
X242625000Y-109265000D03*
%TD*%
D12*
%TO.C,J5*%
X240000000Y-79500000D03*
D13*
X240000000Y-84500000D03*
D14*
X245000000Y-87500000D03*
X245000000Y-76500000D03*
%TD*%
D10*
%TO.C,J2*%
X242625000Y-69000000D03*
D11*
X242625000Y-71540000D03*
%TD*%
D15*
%TO.C,H3*%
X243000000Y-63000000D03*
%TD*%
%TO.C,H2*%
X191000000Y-115000000D03*
%TD*%
D10*
%TO.C,J8*%
X193375000Y-71275000D03*
D11*
X193375000Y-68735000D03*
%TD*%
D10*
%TO.C,J9*%
X193375000Y-109275000D03*
D11*
X193375000Y-106735000D03*
%TD*%
D12*
%TO.C,J3*%
X206000000Y-72000000D03*
D16*
X201000000Y-72000000D03*
D14*
X209000000Y-62000000D03*
X198000000Y-62000000D03*
%TD*%
D15*
%TO.C,H4*%
X191000000Y-63000000D03*
%TD*%
D12*
%TO.C,J4*%
X195000000Y-99000000D03*
D17*
X195000000Y-94000000D03*
D14*
X190000000Y-91000000D03*
X190000000Y-102000000D03*
%TD*%
D15*
%TO.C,H1*%
X243000000Y-115000000D03*
%TD*%
D12*
%TO.C,J6*%
X240000000Y-94000000D03*
D13*
X240000000Y-99000000D03*
D14*
X245000000Y-102000000D03*
X245000000Y-91000000D03*
%TD*%
D12*
%TO.C,J1*%
X195000000Y-84500000D03*
D17*
X195000000Y-79500000D03*
D14*
X190000000Y-76500000D03*
X190000000Y-87500000D03*
%TD*%
D10*
%TO.C,J10*%
X200040000Y-113250000D03*
D11*
X197500000Y-113250000D03*
%TD*%
D18*
%TO.C,J11*%
X215860000Y-113075000D03*
X221640000Y-113075000D03*
D19*
X214430000Y-112575000D03*
X223070000Y-112575000D03*
D20*
X214430000Y-116755000D03*
X223070000Y-116755000D03*
%TD*%
M02*
